<svg id="svg" xmlns="http://www.w3.org/2000/svg" xmlns:xlink="http://www.w3.org/1999/xlink" width="400" height="400" viewBox="0, 0, 400,400"><g id="svgg"><path id="path0" d="M154.499 185.583 C 129.587 241.454,108.712 288.254,108.110 289.583 L 107.017 292.000 124.308 292.000 L 141.599 292.000 150.900 268.750 L 160.201 245.500 199.833 245.500 L 239.465 245.500 248.767 268.750 L 258.068 292.000 275.359 292.000 L 292.650 292.000 291.557 289.583 C 290.956 288.254,270.152 241.454,245.325 185.583 C 220.499 129.712,200.097 84.000,199.989 84.000 C 199.881 84.000,179.411 129.712,154.499 185.583 M213.696 183.920 L 227.224 216.500 213.612 216.587 C 206.126 216.635,193.874 216.635,186.387 216.587 L 172.774 216.500 186.304 183.921 C 193.745 166.002,199.908 151.341,200.000 151.341 C 200.092 151.340,206.255 166.001,213.696 183.920 " stroke="none" fill="#fbfbfb" fill-rule="evenodd"></path><path id="path1" d="M125.167 74.455 C 55.159 99.443,51.162 100.912,51.081 101.684 C 50.944 102.990,73.553 298.022,73.875 298.314 C 74.536 298.913,199.221 367.793,199.833 367.898 C 201.127 368.119,326.124 298.537,326.410 297.437 C 326.981 295.241,349.097 101.298,348.808 101.020 C 348.305 100.537,200.680 47.998,199.891 48.022 C 199.492 48.033,165.867 59.929,125.167 74.455 M246.482 187.750 C 271.884 244.905,292.667 291.817,292.667 292.000 C 292.667 292.218,286.671 292.333,275.375 292.333 L 258.083 292.333 248.733 269.083 L 239.383 245.833 199.825 245.833 L 160.266 245.833 151.000 269.000 L 141.734 292.167 124.327 292.253 C 107.421 292.337,106.925 292.321,107.085 291.711 C 107.497 290.135,199.860 83.419,200.066 83.614 C 200.193 83.734,221.081 130.596,246.482 187.750 M186.517 183.912 C 179.221 201.463,173.179 216.013,173.090 216.245 C 172.961 216.583,178.308 216.667,200.000 216.667 C 225.645 216.667,227.060 216.636,226.848 216.083 C 225.102 211.523,200.174 152.000,200.009 152.000 C 199.884 152.000,193.813 166.360,186.517 183.912 " stroke="none" fill="#cf042f" fill-rule="evenodd"></path><path id="path2" d="M180.109 245.583 C 191.077 245.632,208.927 245.632,219.776 245.583 C 230.624 245.535,221.650 245.495,199.833 245.495 C 178.017 245.495,169.141 245.535,180.109 245.583 " stroke="none" fill="#e05d7b" fill-rule="evenodd"></path><path id="path3" d="M115.583 292.250 C 120.396 292.302,128.271 292.302,133.083 292.250 C 137.896 292.198,133.958 292.155,124.333 292.155 C 114.708 292.155,110.771 292.198,115.583 292.250 M266.940 292.250 C 271.765 292.302,279.565 292.302,284.273 292.250 C 288.981 292.198,285.033 292.155,275.500 292.155 C 265.967 292.155,262.115 292.198,266.940 292.250 " stroke="none" fill="#e57594" fill-rule="evenodd"></path><path id="path4" d="" stroke="none" fill="#ec849c" fill-rule="evenodd"></path></g></svg>