<svg id="svg" xmlns="http://www.w3.org/2000/svg" xmlns:xlink="http://www.w3.org/1999/xlink" width="400" height="400" viewBox="0, 0, 400,400"><g id="svgg"><path id="path0" d="M382.400 4.040 C 382.400 4.238,381.896 4.400,381.280 4.400 C 380.064 4.400,378.008 5.216,378.003 5.700 C 378.001 5.865,377.730 6.000,377.400 6.000 C 377.070 6.000,376.800 6.180,376.800 6.400 C 376.800 6.620,376.643 6.800,376.451 6.800 C 376.259 6.800,374.234 8.615,371.951 10.833 C 369.668 13.051,366.848 15.689,365.684 16.695 C 364.521 17.701,361.531 20.521,359.041 22.962 C 356.550 25.403,353.182 28.597,351.556 30.060 C 349.930 31.522,346.778 34.492,344.552 36.660 C 342.326 38.827,339.086 41.885,337.352 43.455 C 335.618 45.025,333.030 47.422,331.600 48.783 C 330.170 50.143,327.500 52.638,325.667 54.328 C 323.834 56.017,321.131 58.570,319.660 60.000 C 318.190 61.430,315.202 64.220,313.021 66.200 C 310.840 68.180,307.380 71.465,305.333 73.500 C 303.285 75.535,301.548 77.200,301.471 77.200 C 301.304 77.200,295.505 82.612,291.184 86.800 C 289.482 88.450,286.152 91.600,283.784 93.800 C 281.416 96.000,278.268 98.970,276.787 100.400 C 275.306 101.830,272.788 104.170,271.191 105.600 C 269.594 107.030,267.457 109.017,266.444 110.016 C 265.430 111.014,262.260 114.002,259.400 116.656 C 256.540 119.310,252.829 122.813,251.152 124.440 C 249.476 126.068,246.339 129.020,244.180 131.000 C 242.021 132.980,239.044 135.770,237.565 137.200 C 236.085 138.630,232.944 141.600,230.584 143.800 C 228.224 146.000,224.868 149.150,223.125 150.800 C 221.382 152.450,219.354 154.340,218.618 155.000 C 217.882 155.660,215.301 158.090,212.883 160.400 C 210.465 162.710,207.252 165.712,205.743 167.071 C 204.234 168.430,201.356 171.130,199.347 173.071 C 197.338 175.012,194.458 177.748,192.947 179.150 C 188.605 183.181,181.627 189.790,176.300 194.916 L 171.400 199.632 172.400 200.407 C 172.950 200.833,173.715 201.186,174.100 201.191 C 174.485 201.196,174.800 201.380,174.800 201.600 C 174.800 201.820,175.074 202.000,175.409 202.000 C 175.744 202.000,177.139 202.508,178.509 203.130 C 179.879 203.751,181.137 204.286,181.304 204.320 C 181.472 204.353,182.602 204.835,183.816 205.390 C 185.030 205.946,186.166 206.400,186.341 206.400 C 186.515 206.400,187.773 206.940,189.135 207.600 C 190.498 208.260,191.773 208.800,191.969 208.800 C 192.275 208.800,193.767 209.476,196.495 210.850 C 196.877 211.043,197.462 211.200,197.795 211.200 C 198.128 211.200,198.400 211.380,198.400 211.600 C 198.400 211.820,198.672 212.000,199.005 212.000 C 199.338 212.000,199.923 212.166,200.305 212.368 C 202.470 213.515,206.437 215.200,206.975 215.200 C 207.319 215.200,207.600 215.380,207.600 215.600 C 207.600 215.820,207.949 216.000,208.376 216.000 C 208.803 216.000,209.251 216.159,209.370 216.352 C 210.082 217.503,211.743 217.078,213.357 215.332 C 214.260 214.354,216.136 212.349,217.524 210.877 C 218.912 209.405,221.702 206.428,223.724 204.263 C 225.746 202.098,229.110 198.566,231.200 196.414 C 233.290 194.262,236.440 190.914,238.200 188.974 C 239.960 187.034,242.930 183.875,244.800 181.953 C 246.670 180.031,249.308 177.230,250.663 175.729 C 252.018 174.228,254.448 171.625,256.063 169.944 C 257.678 168.263,260.170 165.587,261.600 163.999 C 263.030 162.410,265.370 159.897,266.800 158.414 C 274.510 150.417,276.800 147.992,276.800 147.825 C 276.800 147.723,278.615 145.786,280.834 143.520 C 283.052 141.254,286.157 137.986,287.734 136.258 C 289.310 134.530,292.310 131.348,294.400 129.187 C 296.490 127.026,299.640 123.686,301.400 121.764 C 303.160 119.843,306.193 116.635,308.140 114.635 C 310.088 112.636,312.299 110.254,313.054 109.343 C 313.809 108.431,316.310 105.755,318.613 103.396 C 320.916 101.037,322.800 99.072,322.800 99.029 C 322.800 98.808,326.322 95.004,330.400 90.819 C 332.930 88.223,336.080 84.905,337.400 83.446 C 338.720 81.986,341.690 78.825,344.000 76.421 C 346.310 74.017,349.640 70.494,351.400 68.592 C 353.160 66.690,355.770 63.904,357.200 62.401 C 358.630 60.898,361.780 57.570,364.200 55.005 C 366.620 52.440,369.600 49.283,370.823 47.988 C 372.046 46.694,374.026 44.535,375.223 43.191 C 376.420 41.846,379.200 38.902,381.400 36.647 C 383.600 34.392,386.390 31.413,387.600 30.026 C 388.810 28.639,390.610 26.647,391.600 25.599 C 394.688 22.330,395.600 20.923,395.600 19.429 C 395.600 18.889,395.780 18.336,396.000 18.200 C 396.541 17.866,396.506 15.381,395.935 13.628 C 395.121 11.127,394.613 10.000,394.302 10.000 C 394.136 10.000,394.000 9.724,394.000 9.387 C 394.000 8.483,391.661 6.326,389.600 5.330 C 387.140 4.140,382.400 3.291,382.400 4.040 " stroke="none" fill="#ec3344" fill-rule="evenodd"></path><path id="path1" d="M136.035 213.017 C 130.885 218.177,126.597 222.400,126.507 222.400 C 126.417 222.400,125.525 221.500,124.524 220.400 C 122.038 217.669,121.905 217.717,116.208 223.368 C 110.481 229.050,110.507 228.977,113.255 231.653 L 115.309 233.654 113.755 235.283 C 112.900 236.179,108.645 240.436,104.300 244.743 C 98.383 250.608,96.400 252.816,96.400 253.538 C 96.400 254.646,145.472 304.000,146.574 304.000 C 146.915 304.000,149.813 301.345,153.015 298.100 C 160.108 290.912,158.875 292.145,162.969 288.143 L 166.421 284.768 168.335 286.733 C 171.400 289.880,171.253 289.920,176.771 284.429 C 182.498 278.730,182.573 278.495,179.585 275.586 L 177.571 273.624 184.485 266.630 C 188.288 262.784,191.607 259.431,191.859 259.178 C 197.777 253.263,208.806 242.230,209.059 241.972 C 209.247 241.781,211.065 240.006,213.100 238.028 C 215.135 236.049,216.800 234.231,216.800 233.987 C 216.800 233.336,215.755 232.400,215.029 232.400 C 214.683 232.400,214.400 232.220,214.400 232.000 C 214.400 231.780,213.961 231.600,213.424 231.600 C 212.887 231.600,212.336 231.420,212.200 231.200 C 212.064 230.980,211.603 230.800,211.176 230.800 C 210.749 230.800,210.400 230.620,210.400 230.400 C 210.400 230.180,210.040 230.000,209.600 230.000 C 209.160 230.000,208.800 229.820,208.800 229.600 C 208.800 229.380,208.471 229.200,208.068 229.200 C 207.665 229.200,206.450 228.751,205.368 228.202 C 204.286 227.653,203.006 227.203,202.524 227.202 C 202.042 227.201,201.536 227.020,201.400 226.800 C 201.264 226.580,200.803 226.400,200.376 226.400 C 199.949 226.400,199.600 226.220,199.600 226.000 C 199.600 225.780,199.240 225.600,198.800 225.600 C 198.360 225.600,198.000 225.420,198.000 225.200 C 198.000 224.980,197.561 224.800,197.024 224.800 C 196.487 224.800,195.936 224.620,195.800 224.400 C 195.664 224.180,195.203 224.000,194.776 224.000 C 194.349 224.000,194.000 223.820,194.000 223.600 C 194.000 223.380,193.640 223.200,193.200 223.200 C 192.760 223.200,192.400 223.020,192.400 222.800 C 192.400 222.580,191.950 222.400,191.400 222.400 C 190.850 222.400,190.400 222.220,190.400 222.000 C 190.400 221.780,190.040 221.600,189.600 221.600 C 189.160 221.600,188.800 221.420,188.800 221.200 C 188.800 220.980,188.528 220.800,188.195 220.800 C 187.862 220.800,187.232 220.620,186.795 220.400 C 186.358 220.180,185.642 219.820,185.205 219.600 C 184.768 219.380,184.138 219.200,183.805 219.200 C 183.472 219.200,183.200 219.020,183.200 218.800 C 183.200 218.580,182.840 218.400,182.400 218.400 C 181.960 218.400,181.600 218.220,181.600 218.000 C 181.600 217.780,181.161 217.600,180.624 217.600 C 180.087 217.600,179.536 217.420,179.400 217.200 C 179.264 216.980,178.803 216.800,178.376 216.800 C 177.949 216.800,177.600 216.620,177.600 216.400 C 177.600 216.180,177.240 216.000,176.800 216.000 C 176.360 216.000,176.000 215.820,176.000 215.600 C 176.000 215.380,175.550 215.200,175.000 215.200 C 174.450 215.200,174.000 215.020,174.000 214.800 C 174.000 214.580,173.735 214.400,173.412 214.400 C 173.089 214.400,172.183 214.040,171.400 213.600 C 170.617 213.160,169.621 212.800,169.188 212.800 C 168.755 212.800,168.400 212.620,168.400 212.400 C 168.400 212.180,168.164 212.000,167.875 212.000 C 167.586 212.000,166.638 211.656,165.768 211.236 C 164.898 210.815,163.514 210.345,162.693 210.191 C 161.872 210.037,161.200 209.751,161.200 209.555 C 161.200 209.360,160.840 209.200,160.400 209.200 C 159.960 209.200,159.600 209.020,159.600 208.800 C 159.600 208.580,159.251 208.400,158.824 208.400 C 158.397 208.400,157.936 208.220,157.800 208.000 C 157.664 207.780,157.203 207.600,156.776 207.600 C 156.349 207.600,156.000 207.420,156.000 207.200 C 156.000 206.980,155.728 206.800,155.395 206.800 C 154.807 206.800,154.382 206.633,152.505 205.662 C 152.013 205.408,151.338 205.200,151.005 205.200 C 150.672 205.200,150.400 205.020,150.400 204.800 C 150.400 204.580,150.040 204.400,149.600 204.400 C 149.160 204.400,148.800 204.220,148.800 204.000 C 148.800 203.780,148.035 203.607,147.100 203.617 C 145.421 203.633,145.286 203.747,136.035 213.017 M51.500 297.550 C 32.415 316.655,16.800 332.588,16.800 332.957 C 16.800 333.511,21.629 338.536,25.779 342.300 C 27.607 343.958,27.200 344.228,35.763 335.651 C 38.920 332.489,42.605 328.799,43.954 327.451 C 45.302 326.103,49.172 322.233,52.554 318.852 C 60.176 311.230,61.218 310.188,68.903 302.503 C 72.313 299.093,76.182 295.222,77.502 293.902 C 78.822 292.582,82.489 288.920,85.651 285.764 C 88.813 282.608,92.390 278.950,93.600 277.635 C 94.810 276.321,96.115 275.133,96.500 274.996 C 97.967 274.473,97.292 272.882,94.300 269.808 C 92.705 268.170,90.590 265.932,89.600 264.836 C 88.610 263.740,87.440 262.837,87.000 262.829 C 86.463 262.819,74.810 274.216,51.500 297.550 M71.398 317.389 C 52.149 336.633,36.400 352.549,36.400 352.759 C 36.400 353.080,38.348 355.101,42.885 359.484 C 43.388 359.970,44.430 361.087,45.200 361.965 C 47.265 364.322,46.726 364.647,55.677 355.669 C 57.285 354.056,61.210 350.131,64.400 346.946 C 67.590 343.760,71.280 340.071,72.600 338.747 C 75.697 335.640,85.640 325.697,88.747 322.600 C 90.071 321.280,93.790 317.561,97.012 314.335 C 100.234 311.110,104.102 307.240,105.606 305.735 C 112.300 299.043,117.600 293.592,117.600 293.400 C 117.600 293.285,115.530 291.121,113.000 288.591 C 110.470 286.061,108.400 283.813,108.400 283.596 C 108.400 283.378,108.130 283.200,107.800 283.200 C 107.470 283.200,107.200 283.020,107.200 282.800 C 107.200 281.706,103.939 284.857,71.398 317.389 M122.110 306.531 C 118.137 310.482,112.848 315.766,105.716 322.909 C 103.249 325.379,99.559 329.068,97.516 331.107 C 93.939 334.675,88.712 339.901,80.913 347.709 C 76.650 351.977,70.193 358.431,64.311 364.305 C 56.131 372.472,55.727 373.087,57.657 374.412 C 58.128 374.735,58.893 375.407,59.357 375.905 C 67.432 384.574,66.859 384.406,71.628 379.500 C 73.606 377.465,75.381 375.647,75.572 375.459 C 75.763 375.272,79.429 371.609,83.719 367.319 C 88.009 363.029,91.672 359.365,91.859 359.178 C 92.304 358.733,108.597 342.441,109.119 341.919 C 109.339 341.699,113.029 338.009,117.319 333.719 C 121.609 329.429,125.272 325.764,125.459 325.574 C 125.647 325.385,128.365 322.708,131.500 319.625 C 137.743 313.486,138.046 312.913,135.956 311.200 C 135.285 310.650,133.043 308.535,130.973 306.500 C 126.405 302.008,126.661 302.007,122.110 306.531 M6.900 352.232 C 4.205 354.986,2.000 357.502,2.000 357.823 C 2.000 358.383,5.299 361.884,14.311 370.891 C 16.572 373.151,20.442 377.025,22.911 379.499 C 32.662 389.272,34.926 391.524,38.194 394.700 C 40.061 396.515,41.864 398.000,42.200 398.000 C 42.536 398.000,44.330 396.515,46.185 394.700 C 48.041 392.885,50.280 390.770,51.161 390.000 C 53.637 387.836,53.474 387.436,47.900 381.983 C 45.205 379.347,42.665 376.852,42.255 376.440 C 41.269 375.447,26.017 360.179,25.575 359.741 C 25.385 359.553,22.528 356.655,19.225 353.300 C 15.868 349.890,12.906 347.206,12.510 347.213 C 12.119 347.221,9.595 349.479,6.900 352.232 " stroke="none" fill="#040404" fill-rule="evenodd"></path><path id="path2" d="M384.400 3.753 C 384.400 3.838,384.850 3.993,385.400 4.098 C 385.950 4.203,386.400 4.134,386.400 3.945 C 386.400 3.755,385.950 3.600,385.400 3.600 C 384.850 3.600,384.400 3.669,384.400 3.753 M367.513 14.500 C 366.515 15.435,365.192 16.601,364.574 17.091 C 363.955 17.581,363.542 18.075,363.655 18.188 C 363.768 18.302,365.197 17.144,366.831 15.616 C 368.464 14.088,369.694 12.829,369.564 12.819 C 369.434 12.809,368.511 13.565,367.513 14.500 M362.060 19.480 C 361.543 20.015,361.197 20.530,361.292 20.625 C 361.386 20.719,361.885 20.348,362.400 19.800 C 362.915 19.252,363.261 18.737,363.168 18.655 C 363.076 18.574,362.577 18.945,362.060 19.480 M354.175 27.055 C 349.881 30.979,346.320 34.453,346.454 34.587 C 346.536 34.669,347.957 33.445,349.612 31.868 C 351.267 30.291,353.408 28.322,354.370 27.493 C 355.333 26.664,356.036 25.903,355.935 25.801 C 355.833 25.699,355.041 26.264,354.175 27.055 M390.009 27.270 C 389.474 27.942,388.176 29.417,387.125 30.546 C 386.074 31.676,385.211 32.758,385.207 32.951 C 385.203 33.143,385.933 32.513,386.829 31.551 C 389.359 28.832,391.330 26.396,391.147 26.214 C 391.056 26.123,390.544 26.598,390.009 27.270 M340.224 40.194 C 338.961 41.407,338.079 42.397,338.264 42.393 C 338.751 42.383,342.947 38.413,342.715 38.182 C 342.608 38.075,341.487 38.980,340.224 40.194 M378.075 40.016 C 377.594 40.464,377.200 41.034,377.200 41.282 C 377.200 41.530,377.245 41.658,377.300 41.567 C 377.355 41.475,377.836 40.905,378.370 40.300 C 379.506 39.011,379.333 38.844,378.075 40.016 M375.802 42.398 C 375.403 42.839,375.207 43.200,375.367 43.200 C 375.788 43.200,376.928 41.995,376.712 41.779 C 376.611 41.678,376.202 41.956,375.802 42.398 M334.800 45.200 C 333.884 46.080,333.293 46.800,333.486 46.800 C 333.679 46.800,334.541 46.080,335.400 45.200 C 336.259 44.320,336.851 43.600,336.714 43.600 C 336.577 43.600,335.716 44.320,334.800 45.200 M373.804 44.796 C 373.174 45.454,372.735 46.056,372.829 46.134 C 372.923 46.212,373.513 45.674,374.139 44.938 C 375.554 43.277,375.345 43.188,373.804 44.796 M327.854 51.800 C 326.564 53.010,325.670 54.000,325.868 54.000 C 326.066 54.000,327.205 53.010,328.400 51.800 C 329.595 50.590,330.489 49.600,330.386 49.600 C 330.283 49.600,329.144 50.590,327.854 51.800 M363.794 55.300 C 361.709 57.524,360.635 58.800,360.848 58.800 C 360.943 58.800,362.140 57.630,363.510 56.200 C 364.879 54.770,365.862 53.600,365.694 53.600 C 365.526 53.600,364.671 54.365,363.794 55.300 M313.541 65.300 C 311.664 67.115,310.593 68.240,311.161 67.800 C 311.728 67.360,312.285 66.899,312.397 66.776 C 312.508 66.653,313.723 65.528,315.097 64.276 C 316.470 63.024,317.449 62.000,317.274 62.000 C 317.098 62.000,315.419 63.485,313.541 65.300 M352.086 67.854 C 351.583 68.374,351.330 68.800,351.524 68.800 C 351.948 68.800,353.397 67.255,353.164 67.051 C 353.074 66.972,352.589 67.333,352.086 67.854 M349.398 70.685 C 347.901 72.319,347.795 73.057,349.276 71.535 C 350.623 70.151,351.337 69.200,351.029 69.200 C 350.880 69.200,350.147 69.868,349.398 70.685 M302.218 75.818 C 301.587 76.360,301.179 76.912,301.311 77.044 C 301.443 77.177,302.032 76.805,302.618 76.218 C 304.001 74.835,303.706 74.540,302.218 75.818 M297.285 80.485 C 295.470 82.263,294.034 83.762,294.093 83.814 C 294.290 83.990,300.954 77.620,300.768 77.434 C 300.667 77.333,299.100 78.706,297.285 80.485 M340.668 79.900 C 337.739 82.949,334.878 86.211,335.013 86.346 C 335.169 86.502,335.799 85.869,339.141 82.198 C 341.475 79.635,342.715 77.769,340.668 79.900 M288.242 89.022 C 287.177 90.000,286.462 90.800,286.653 90.800 C 287.112 90.800,290.567 87.634,290.348 87.415 C 290.254 87.321,289.307 88.045,288.242 89.022 M326.800 94.415 C 324.446 97.016,324.190 97.837,326.445 95.554 C 328.668 93.303,329.391 92.397,328.949 92.413 C 328.757 92.420,327.790 93.321,326.800 94.415 M281.798 95.160 C 280.919 95.983,279.939 97.004,279.621 97.429 C 279.303 97.853,280.019 97.300,281.213 96.200 C 282.406 95.100,283.462 94.155,283.558 94.100 C 283.655 94.045,283.657 93.924,283.564 93.831 C 283.471 93.738,282.676 94.336,281.798 95.160 M323.458 98.187 C 323.050 98.496,322.780 98.924,322.858 99.138 C 322.936 99.351,323.323 99.093,323.719 98.563 C 324.540 97.462,324.498 97.400,323.458 98.187 M274.207 102.207 C 272.719 103.652,271.572 104.905,271.659 104.992 C 271.745 105.079,273.045 103.979,274.548 102.548 C 276.051 101.118,277.198 99.864,277.097 99.764 C 276.996 99.663,275.696 100.762,274.207 102.207 M321.268 100.527 C 320.035 101.840,320.187 102.249,321.442 100.994 C 322.016 100.421,322.406 99.873,322.311 99.777 C 322.215 99.682,321.746 100.019,321.268 100.527 M314.831 107.264 C 313.934 108.179,313.200 109.085,313.200 109.277 C 313.200 109.617,315.246 107.677,316.349 106.290 C 317.362 105.017,316.477 105.584,314.831 107.264 M261.245 114.419 C 260.060 115.521,259.170 116.504,259.268 116.602 C 259.367 116.700,260.420 115.795,261.610 114.590 C 264.313 111.853,264.107 111.757,261.245 114.419 M304.796 117.833 C 304.795 118.035,303.760 119.290,302.496 120.622 C 299.070 124.234,297.962 125.635,300.140 123.600 C 302.723 121.186,305.360 118.027,305.051 117.717 C 304.913 117.579,304.798 117.632,304.796 117.833 M246.760 127.984 C 244.912 129.743,243.532 131.186,243.693 131.191 C 243.855 131.196,244.911 130.345,246.041 129.300 C 247.171 128.255,248.639 126.900,249.303 126.288 C 249.967 125.677,250.422 125.089,250.315 124.982 C 250.208 124.875,248.608 126.226,246.760 127.984 M290.300 133.388 C 289.291 134.775,289.439 134.997,290.600 133.836 C 291.623 132.813,291.831 132.390,291.300 132.413 C 291.135 132.419,290.685 132.858,290.300 133.388 M288.240 135.700 C 287.835 136.195,286.405 137.725,285.063 139.100 C 283.721 140.475,282.750 141.600,282.905 141.600 C 283.289 141.600,289.200 135.510,289.200 135.115 C 289.200 134.628,289.037 134.728,288.240 135.700 M234.461 139.455 C 233.725 140.225,233.186 140.920,233.265 140.998 C 233.441 141.175,236.400 138.571,236.400 138.239 C 236.400 137.708,235.731 138.127,234.461 139.455 M228.574 145.288 C 227.708 146.209,227.348 146.701,227.773 146.381 C 228.970 145.481,230.465 143.932,230.298 143.765 C 230.216 143.682,229.440 144.368,228.574 145.288 M278.061 146.255 C 277.325 147.025,276.819 147.752,276.937 147.870 C 277.144 148.078,278.421 146.916,279.549 145.493 C 280.529 144.256,279.438 144.815,278.061 146.255 M221.633 151.600 C 220.250 152.920,219.307 154.000,219.537 154.000 C 219.767 154.000,221.055 152.920,222.400 151.600 C 223.745 150.280,224.688 149.200,224.496 149.200 C 224.304 149.200,223.016 150.280,221.633 151.600 M271.829 153.050 C 270.306 154.672,269.187 156.000,269.343 156.000 C 269.499 156.000,270.206 155.400,270.913 154.667 C 274.458 150.994,275.330 150.004,274.981 150.050 C 274.772 150.077,273.353 151.427,271.829 153.050 M265.301 159.885 C 263.326 162.036,263.300 162.737,265.271 160.703 C 267.175 158.737,267.747 157.998,267.349 158.017 C 267.157 158.027,266.235 158.867,265.301 159.885 M209.063 163.409 C 207.778 164.614,206.878 165.600,207.063 165.600 C 207.248 165.599,208.480 164.612,209.800 163.406 C 211.120 162.200,212.020 161.214,211.800 161.215 C 211.580 161.216,210.348 162.204,209.063 163.409 M253.126 172.971 C 251.655 174.519,250.518 175.852,250.599 175.933 C 250.680 176.014,251.344 175.463,252.073 174.708 C 255.107 171.572,256.136 170.405,255.973 170.285 C 255.878 170.215,254.597 171.424,253.126 172.971 M195.313 176.431 C 194.388 177.294,193.759 177.996,193.915 177.991 C 194.325 177.977,197.343 175.209,197.154 175.020 C 197.067 174.933,196.238 175.568,195.313 176.431 M241.533 185.164 C 241.460 185.364,240.410 186.587,239.200 187.882 C 235.879 191.435,235.503 192.181,238.639 188.995 C 241.961 185.620,242.634 184.800,242.082 184.800 C 241.854 184.800,241.607 184.964,241.533 185.164 M182.632 188.232 C 181.561 189.214,180.772 190.105,180.877 190.211 C 180.983 190.316,181.934 189.587,182.989 188.589 C 184.045 187.592,184.835 186.701,184.744 186.610 C 184.652 186.519,183.702 187.249,182.632 188.232 M172.443 198.023 C 171.917 198.461,171.557 198.890,171.643 198.976 C 171.730 199.062,172.305 198.697,172.922 198.166 C 173.540 197.635,173.900 197.206,173.722 197.213 C 173.545 197.221,172.970 197.585,172.443 198.023 M228.501 199.085 C 226.772 200.968,226.388 202.083,228.076 200.319 C 230.180 198.120,230.919 197.201,230.570 197.217 C 230.366 197.227,229.435 198.067,228.501 199.085 M177.600 202.971 C 177.600 203.229,180.060 204.402,180.561 204.383 C 180.803 204.374,180.370 204.022,179.600 203.600 C 178.206 202.837,177.600 202.646,177.600 202.971 M223.800 204.191 C 223.360 204.689,222.190 205.941,221.200 206.971 C 220.210 208.002,219.670 208.721,220.000 208.568 C 220.766 208.215,225.455 203.186,224.966 203.242 C 224.765 203.265,224.240 203.692,223.800 204.191 M181.478 204.659 C 181.592 204.957,182.011 205.200,182.409 205.200 C 182.808 205.200,183.200 205.401,183.282 205.646 C 183.364 205.891,183.721 206.026,184.077 205.946 C 184.491 205.852,184.102 205.497,182.997 204.959 C 181.798 204.375,181.334 204.284,181.478 204.659 M185.423 206.437 C 185.546 206.637,185.997 206.800,186.424 206.800 C 186.851 206.800,187.200 206.936,187.200 207.102 C 187.200 207.268,187.785 207.602,188.500 207.843 C 189.215 208.084,190.160 208.406,190.600 208.558 C 191.040 208.710,190.389 208.314,189.154 207.678 C 186.690 206.409,185.074 205.872,185.423 206.437 M215.325 213.108 C 214.404 214.139,213.721 215.055,213.808 215.142 C 214.028 215.362,217.200 212.019,217.200 211.567 C 217.200 211.024,217.145 211.069,215.325 213.108 M211.796 216.807 C 211.658 217.030,211.377 217.109,211.172 216.983 C 210.968 216.856,210.800 216.943,210.800 217.176 C 210.800 217.751,211.248 217.690,212.176 216.987 C 212.604 216.664,212.749 216.400,212.500 216.400 C 212.251 216.400,211.934 216.583,211.796 216.807 " stroke="none" fill="#f01c24" fill-rule="evenodd"></path><path id="path3" d="" stroke="none" fill="#401c24" fill-rule="evenodd"></path><path id="path4" d="" stroke="none" fill="#041c28" fill-rule="evenodd"></path></g></svg>